<?xml version="1.0" encoding="utf-8"?>
<!-- Svg Vector Icons : http://www.onlinewebfonts.com/icon -->
<!DOCTYPE svg PUBLIC "-//W3C//DTD SVG 1.1//EN" "http://www.w3.org/Graphics/SVG/1.1/DTD/svg11.dtd">
<svg version="1.1" xmlns="http://www.w3.org/2000/svg" xmlns:xlink="http://www.w3.org/1999/xlink" x="0px" y="0px" viewBox="0 0 256 256" enable-background="new 0 0 256 256" xml:space="preserve">
<metadata> Svg Vector Icons : http://www.onlinewebfonts.com/icon </metadata>
<g><g><g><path fill="#000000" d="M121.3,10.9c-7.1,1.9-14.1,7.5-17.3,13.8c-2.9,5.7-3,7.6-3,43.3v33H68c-35.7,0-37.7,0.2-43.3,3c-6.5,3.3-12,10.2-13.9,17.5c-3.7,14.4,5.7,29.5,20.3,32.6c3.1,0.7,10.3,0.8,36.9,0.8h33v33.3c0,27.4,0.2,33.9,0.8,36.9c3.4,14.6,18.3,23.8,32.6,20.1c9.8-2.6,17.4-10.2,19.7-20.1c0.7-2.9,0.8-9.4,0.8-36.9V155h33c26.5,0,33.7-0.2,36.8-0.8c14.6-3.1,24.1-18.2,20.3-32.6c-2.6-9.8-10.2-17.4-20.1-19.7c-2.9-0.7-9.4-0.8-36.8-0.8H155V68c0-26.2-0.2-33.8-0.8-36.7C151,16.5,135.8,7,121.3,10.9z"/></g></g></g>
</svg>